G04 Layer: BottomLayer*
G04 EasyEDA v6.4.20.6, 2021-08-11T14:47:25--4:00*
G04 e974da8606444200a0902e9624b14983,f06b2ae44ace4e68bcf10d52e37fd181,10*
G04 Gerber Generator version 0.2*
G04 Scale: 100 percent, Rotated: No, Reflected: No *
G04 Dimensions in millimeters *
G04 leading zeros omitted , absolute positions ,4 integer and 5 decimal *
%FSLAX45Y45*%
%MOMM*%

%ADD10C,0.2540*%
%ADD11R,3.2918X1.8288*%
%ADD12C,2.2000*%
%ADD13R,1.6000X0.9000*%
%ADD14C,0.9000*%

%LPD*%
D10*
X5342712Y6464300D02*
G01*
X6740016Y5066995D01*
X6740016Y4000804D01*
X6650819Y3911600D01*
X6629400Y3911600D01*
X5397500Y3276600D02*
G01*
X5204790Y3276600D01*
X5204790Y3276600D02*
G01*
X5204790Y4565522D01*
X3318713Y6451600D01*
X5397500Y1752600D02*
G01*
X5590209Y1752600D01*
X6629400Y4165600D02*
G01*
X6521272Y4165600D01*
X6521272Y4165600D02*
G01*
X6521272Y2683662D01*
X5590209Y1752600D01*
D11*
G01*
X3111500Y3530600D03*
G36*
X5232908Y1844039D02*
G01*
X5562091Y1844039D01*
X5562091Y1661160D01*
X5232908Y1661160D01*
G37*
G36*
X5232908Y2098039D02*
G01*
X5562091Y2098039D01*
X5562091Y1915160D01*
X5232908Y1915160D01*
G37*
G36*
X5232908Y2352039D02*
G01*
X5562091Y2352039D01*
X5562091Y2169160D01*
X5232908Y2169160D01*
G37*
G36*
X5232908Y2606039D02*
G01*
X5562091Y2606039D01*
X5562091Y2423160D01*
X5232908Y2423160D01*
G37*
G36*
X5232908Y2860039D02*
G01*
X5562091Y2860039D01*
X5562091Y2677160D01*
X5232908Y2677160D01*
G37*
G36*
X5232908Y3114039D02*
G01*
X5562091Y3114039D01*
X5562091Y2931160D01*
X5232908Y2931160D01*
G37*
G36*
X5232908Y3368039D02*
G01*
X5562091Y3368039D01*
X5562091Y3185160D01*
X5232908Y3185160D01*
G37*
G36*
X5232908Y3622039D02*
G01*
X5562091Y3622039D01*
X5562091Y3439160D01*
X5232908Y3439160D01*
G37*
G01*
X3111500Y1752600D03*
G01*
X3111500Y2006600D03*
G01*
X3111500Y2260600D03*
G01*
X3111500Y2514600D03*
G01*
X3111500Y2768600D03*
G01*
X3111500Y3022600D03*
G01*
X3111500Y3276600D03*
D12*
G01*
X3318713Y6451600D03*
G01*
X3818712Y6451600D03*
G01*
X4842713Y6464300D03*
G01*
X5342712Y6464300D03*
D13*
G01*
X6629400Y4165600D03*
D14*
X6664401Y3911600D02*
G01*
X6594401Y3911600D01*
X6664401Y4038600D02*
G01*
X6594401Y4038600D01*
M02*
