M48
METRIC,LZ,000.000
;FILE_FORMAT=3:3
;TYPE=PLATED
;Layer: Drill PTH
;EasyEDA v6.4.20.6, 2021-08-11T14:47:25--4:00
;e974da8606444200a0902e9624b14983,f06b2ae44ace4e68bcf10d52e37fd181,10
;Gerber Generator version 0.2
;Holesize 1 = 0.800 mm
T01C0.800
;Holesize 2 = 1.016 mm
T02C1.016
;Holesize 3 = 1.400 mm
T03C1.400
%
G05
G90
T01
X066294Y039116
X066294Y040386
X066294Y041656
T02
X031115Y035306
X053975Y017526
X053975Y020066
X053975Y022606
X053975Y025146
X053975Y027686
X053975Y030226
X053975Y032766
X053975Y035306
X031115Y017526
X031115Y020066
X031115Y022606
X031115Y025146
X031115Y027686
X031115Y030226
X031115Y032766
T03
X033187Y064516
X038187Y064516
X048427Y064643
X053427Y064643
M30
